<svg xmlns="http://www.w3.org/2000/svg" viewBox="0 0 18.169 27.659">
  <g id="Symbol_213_1" data-type="sailing" transform="translate(-134.803 -131.898)">
    <rect id="Rectangle_1881" data-type="sailing" width="19.056" height="0.579" transform="matrix(0.361, -0.932, 0.932, 0.361, 134.931, 156.093)"/>
    <path id="Path_1141" data-type="sailing" d="M17.409,25.614a.3.3,0,0,1-.309-.309v-25a.309.309,0,1,1,.617,0V25.344A.374.374,0,0,1,17.409,25.614Z" transform="translate(124.299 131.898)"/>
    <g id="Group_2468" data-type="sailing" transform="translate(134.803 134.213)">
      <path id="Path_1142" data-type="sailing" d="M3.8,38.847H7.928V28.2Z" transform="translate(-2.334 -19.636)"/>
      <path id="Path_1143" data-type="sailing" d="M28.7,25.133l-10.8.077V6Z" transform="translate(-10.995 -6)"/>
      <path id="Path_1144" data-type="sailing" d="M0,62.5a33.083,33.083,0,0,1,3.009,3.549H16.626a1.548,1.548,0,0,0,1.543-1.543V62.577Z" transform="translate(0 -40.705)"/>
      <path id="Path_1145" data-type="sailing" d="M11.5,61.434l.579-1.234H15.82l.694,1.234Z" transform="translate(-7.064 -39.292)"/>
    </g>
  </g>
</svg>