<svg id="svg" version="1.1" viewBox="0 0 400 327.27272727272725" xmlns="http://www.w3.org/2000/svg" xmlns:xlink="http://www.w3.org/1999/xlink" >
<g id="svgg">
<style>.path0 {fill:#737373}</style>
<path id="path0" class="path0" d="M33.971 0.378 C 33.787 0.931,31.186 1.626,29.280 1.632 C 28.371 1.634,27.447 1.817,27.227 2.036 C 27.007 2.256,26.573 2.452,26.261 2.471 C 25.950 2.491,25.176 2.532,24.541 2.563 C 23.769 2.600,23.031 2.944,22.311 3.601 C 21.720 4.141,20.974 4.583,20.652 4.583 C 20.331 4.583,19.802 4.877,19.476 5.237 C 19.150 5.597,18.602 5.892,18.258 5.892 C 17.914 5.892,17.146 6.408,16.551 7.038 C 15.957 7.668,15.153 8.183,14.764 8.183 C 13.769 8.183,8.183 13.802,8.183 14.803 C 8.183 15.262,7.744 15.899,7.038 16.462 C 6.408 16.965,5.892 17.538,5.892 17.736 C 5.892 17.933,5.668 18.259,5.394 18.459 C 5.119 18.660,4.803 19.390,4.691 20.083 C 4.576 20.789,4.077 21.790,3.553 22.364 C 2.940 23.035,2.599 23.783,2.563 24.541 C 2.461 26.637,2.437 26.762,2.046 27.234 C 1.832 27.491,1.508 29.018,1.325 30.627 C 1.107 32.553,0.824 33.676,0.497 33.915 C 0.054 34.239,-0.000 48.275,0.000 162.600 L 0.000 290.922 0.700 291.105 C 1.586 291.337,1.391 293.817,0.432 294.519 C 0.039 294.806,-0.040 295.030,0.198 295.185 C 0.816 295.585,1.309 296.804,1.311 297.933 C 1.313 298.530,1.606 299.460,1.964 300.000 C 2.322 300.540,2.615 301.438,2.617 301.996 C 2.619 302.998,3.323 304.777,4.095 305.728 C 4.314 305.998,4.584 306.703,4.696 307.295 C 4.807 307.887,5.417 309.050,6.050 309.879 C 6.683 310.709,7.201 311.513,7.201 311.667 C 7.201 313.036,16.506 321.440,18.021 321.440 C 18.627 321.440,19.087 321.673,19.313 322.095 C 19.505 322.455,19.966 322.750,20.336 322.750 C 20.707 322.750,21.384 323.044,21.842 323.404 C 22.300 323.764,22.875 324.059,23.121 324.059 C 23.367 324.059,23.568 324.187,23.568 324.344 C 23.568 324.501,24.194 324.725,24.959 324.842 C 25.724 324.958,26.792 325.265,27.332 325.524 C 27.872 325.783,29.012 326.083,29.865 326.192 C 30.718 326.300,31.628 326.601,31.888 326.861 C 32.632 327.605,34.653 327.460,35.338 326.613 L 35.921 325.894 36.370 326.613 L 36.819 327.332 200.242 327.332 C 346.968 327.332,363.666 327.281,363.666 326.830 C 363.666 326.176,366.864 326.364,367.302 327.043 C 367.521 327.383,367.657 327.399,367.846 327.107 C 368.209 326.548,369.750 326.023,371.029 326.023 C 371.635 326.023,372.327 325.826,372.567 325.586 C 372.807 325.346,373.862 325.048,374.911 324.925 C 375.960 324.802,377.037 324.483,377.304 324.216 C 377.570 323.950,378.012 323.732,378.286 323.732 C 378.560 323.732,379.158 323.437,379.616 323.077 C 380.074 322.717,380.723 322.422,381.059 322.422 C 381.395 322.422,381.669 322.293,381.669 322.135 C 381.669 321.976,382.074 321.679,382.570 321.473 C 383.065 321.267,383.721 320.660,384.027 320.124 C 384.392 319.487,384.845 319.149,385.337 319.149 C 386.022 319.150,387.046 318.336,388.978 316.257 C 389.369 315.836,390.168 315.039,390.753 314.486 C 391.375 313.897,391.817 313.155,391.817 312.698 C 391.817 312.175,392.138 311.733,392.792 311.360 C 393.328 311.053,393.935 310.397,394.141 309.902 C 394.347 309.407,394.644 309.002,394.802 309.002 C 394.961 309.002,395.090 308.727,395.090 308.391 C 395.090 308.055,395.385 307.406,395.745 306.948 C 396.105 306.491,396.399 305.892,396.399 305.618 C 396.399 305.344,396.617 304.902,396.884 304.636 C 397.151 304.369,397.470 303.293,397.593 302.243 C 397.716 301.194,398.014 300.139,398.254 299.899 C 398.494 299.659,398.691 298.967,398.691 298.361 C 398.691 297.083,399.216 295.541,399.775 295.179 C 400.067 294.989,400.051 294.854,399.711 294.635 C 399.031 294.197,398.843 290.998,399.497 290.998 C 399.948 290.998,400.000 277.964,400.000 163.909 L 400.000 36.819 399.281 36.370 L 398.562 35.921 399.281 35.338 C 400.012 34.746,400.361 32.079,399.708 32.079 C 399.287 32.079,399.044 31.296,398.692 28.813 C 398.521 27.608,398.157 26.194,397.883 25.668 C 397.609 25.143,397.384 24.456,397.383 24.141 C 397.382 23.826,397.237 23.568,397.060 23.568 C 396.884 23.568,396.648 23.206,396.537 22.763 C 396.426 22.320,396.129 21.787,395.876 21.577 C 395.624 21.368,395.417 20.918,395.417 20.579 C 395.417 20.239,395.123 19.709,394.763 19.400 C 394.403 19.092,394.108 18.444,394.108 17.960 C 394.108 17.412,393.584 16.434,392.717 15.367 C 391.952 14.425,391.034 13.270,390.677 12.801 C 390.321 12.332,389.929 11.903,389.807 11.848 C 389.685 11.794,388.932 11.131,388.134 10.375 C 385.872 8.234,384.645 7.255,383.941 7.031 C 383.585 6.918,382.818 6.391,382.236 5.859 C 381.642 5.316,380.644 4.807,379.957 4.697 C 379.285 4.589,378.568 4.298,378.362 4.051 C 378.157 3.803,377.634 3.601,377.200 3.601 C 376.766 3.601,376.328 3.383,376.226 3.117 C 376.115 2.828,375.395 2.547,374.441 2.421 C 373.562 2.304,372.675 2.006,372.470 1.759 C 372.265 1.512,371.516 1.309,370.806 1.309 C 369.496 1.309,368.275 0.850,367.853 0.198 C 367.698 -0.040,367.474 0.039,367.186 0.432 C 366.485 1.391,364.005 1.586,363.773 0.700 L 363.590 0.000 198.843 0.000 C 74.575 0.000,34.066 0.093,33.971 0.378 M376.035 16.224 C 376.437 16.505,377.034 16.651,377.362 16.547 C 377.731 16.430,378.508 16.743,379.404 17.370 C 380.200 17.926,381.251 18.627,381.739 18.928 C 382.228 19.229,382.817 19.843,383.049 20.294 C 383.280 20.744,383.700 21.286,383.982 21.498 C 384.264 21.710,384.759 22.520,385.081 23.299 C 385.404 24.077,385.873 25.105,386.124 25.582 C 386.511 26.321,386.579 47.035,386.579 163.531 L 386.579 300.612 385.860 302.106 C 385.464 302.928,384.949 303.795,384.714 304.033 C 384.480 304.271,384.288 304.822,384.288 305.258 C 384.288 306.489,381.805 308.457,377.807 310.394 L 375.614 311.457 200.491 311.552 C 50.547 311.634,25.227 311.582,24.386 311.187 C 23.846 310.934,22.592 310.339,21.599 309.864 C 20.606 309.390,19.661 309.002,19.497 309.002 C 18.953 309.002,18.003 307.926,18.003 307.311 C 18.003 306.977,17.709 306.452,17.349 306.143 C 16.989 305.835,16.694 305.395,16.694 305.165 C 16.694 304.935,16.549 304.746,16.373 304.746 C 16.196 304.746,15.953 304.341,15.832 303.846 C 15.711 303.351,15.339 302.433,15.007 301.805 C 14.545 300.932,14.400 299.933,14.392 297.550 C 14.385 295.331,14.244 294.253,13.901 293.800 C 13.163 292.824,13.173 36.736,13.912 36.452 C 14.319 36.296,14.403 35.393,14.403 31.148 C 14.403 26.234,14.438 25.961,15.297 24.227 C 16.146 22.514,20.264 18.003,20.979 18.003 C 21.158 18.003,22.267 17.553,23.443 17.003 C 25.525 16.030,25.694 16.005,29.796 16.092 C 32.114 16.141,34.115 16.076,34.244 15.947 C 34.789 15.401,375.256 15.678,376.035 16.224 M92.360 56.129 L 91.326 57.266 91.326 100.285 L 91.326 143.304 92.483 144.320 L 93.640 145.336 99.957 145.336 L 106.274 145.336 107.474 144.135 L 108.674 142.935 108.674 126.319 C 108.674 111.650,108.735 109.643,109.189 109.189 C 109.626 108.751,110.824 108.674,117.236 108.674 L 124.768 108.674 125.887 107.523 L 127.005 106.371 127.005 99.560 C 127.005 90.504,127.962 91.326,117.421 91.326 C 109.778 91.326,109.334 91.292,109.013 90.693 C 108.409 89.563,108.567 73.476,109.189 72.855 C 109.643 72.401,111.649 72.340,126.309 72.340 L 142.916 72.340 143.962 71.261 L 145.008 70.182 145.008 63.241 C 145.008 56.738,144.967 56.260,144.354 55.646 C 143.710 55.003,143.262 54.992,118.547 54.992 L 93.395 54.992 92.360 56.129 M197.709 55.483 C 197.403 55.851,196.583 55.974,194.435 55.974 C 192.403 55.974,191.461 56.105,191.196 56.424 C 190.990 56.672,190.255 56.965,189.562 57.076 C 188.868 57.187,188.117 57.500,187.891 57.771 C 187.666 58.043,187.294 58.265,187.065 58.265 C 186.837 58.265,186.565 58.486,186.461 58.756 C 186.357 59.026,185.918 59.247,185.484 59.247 C 185.050 59.247,184.517 59.462,184.299 59.725 C 184.080 59.989,183.583 60.302,183.195 60.422 C 182.806 60.541,182.267 60.839,181.997 61.083 C 181.727 61.328,180.622 62.303,179.542 63.251 C 176.526 65.899,175.123 67.517,175.123 68.347 C 175.123 68.891,174.848 69.197,174.141 69.443 C 173.601 69.632,173.159 69.971,173.159 70.198 C 173.159 70.424,172.633 71.298,171.991 72.139 C 171.349 72.980,170.744 74.158,170.647 74.755 C 170.550 75.353,170.044 76.299,169.523 76.856 C 169.002 77.414,168.576 78.064,168.576 78.301 C 168.576 78.539,168.282 79.283,167.921 79.955 C 167.561 80.626,167.267 81.748,167.267 82.446 C 167.267 83.176,167.058 83.890,166.776 84.124 C 166.497 84.356,166.285 85.070,166.285 85.778 C 166.285 86.518,166.057 87.251,165.724 87.585 C 165.114 88.195,164.556 94.465,164.881 97.067 C 165.001 98.033,164.904 98.506,164.519 98.825 C 163.855 99.377,163.832 101.014,164.484 101.264 C 164.755 101.368,164.975 101.807,164.975 102.241 C 164.975 102.675,164.755 103.213,164.484 103.437 C 163.866 103.950,163.849 104.959,164.452 105.303 C 164.783 105.492,164.943 106.459,165.025 108.779 C 165.119 111.425,165.241 112.051,165.712 112.315 C 166.135 112.551,166.285 113.051,166.285 114.220 C 166.285 115.327,166.433 115.862,166.776 115.994 C 167.082 116.111,167.267 116.611,167.267 117.321 C 167.267 118.349,168.467 121.132,169.248 121.915 C 169.419 122.086,169.558 122.689,169.558 123.255 C 169.558 123.869,169.822 124.524,170.213 124.877 C 170.573 125.203,170.867 125.741,170.867 126.074 C 170.867 126.406,171.420 127.248,172.095 127.944 C 174.387 130.310,175.123 131.201,175.123 131.612 C 175.123 132.253,181.435 138.459,182.089 138.460 C 182.410 138.461,182.757 138.682,182.860 138.953 C 182.964 139.223,183.249 139.444,183.493 139.444 C 183.738 139.444,184.095 139.738,184.288 140.098 C 184.490 140.475,184.973 140.753,185.429 140.753 C 185.864 140.753,186.337 140.937,186.481 141.162 C 186.853 141.743,189.371 143.044,190.123 143.044 C 190.470 143.044,190.929 143.254,191.142 143.511 C 191.486 143.925,194.131 144.254,197.749 144.331 C 198.221 144.341,198.791 144.571,199.016 144.842 C 199.587 145.530,201.256 145.457,202.704 144.681 C 203.560 144.222,204.551 144.026,206.014 144.026 C 207.472 144.026,208.226 143.878,208.511 143.535 C 208.735 143.265,209.309 143.044,209.787 143.044 C 210.265 143.044,210.909 142.750,211.217 142.390 C 211.584 141.961,212.183 141.735,212.948 141.735 C 213.862 141.735,214.356 141.484,215.200 140.589 C 215.794 139.959,216.504 139.444,216.777 139.444 C 217.050 139.444,217.519 139.069,217.819 138.610 C 218.120 138.152,218.747 137.603,219.214 137.390 C 220.251 136.918,225.859 131.364,225.859 130.809 C 225.859 130.349,226.561 129.391,228.069 127.793 C 228.654 127.173,229.133 126.397,229.133 126.068 C 229.133 125.739,229.427 125.203,229.787 124.877 C 230.184 124.518,230.442 123.869,230.442 123.230 C 230.442 122.650,230.663 121.992,230.933 121.768 C 231.203 121.543,231.424 121.008,231.424 120.579 C 231.424 120.149,231.718 119.545,232.079 119.237 C 232.439 118.928,232.733 118.285,232.733 117.807 C 232.733 117.329,232.954 116.754,233.224 116.530 C 233.538 116.270,233.715 115.546,233.715 114.523 C 233.715 113.328,233.881 112.781,234.370 112.363 C 234.935 111.879,235.025 111.397,235.025 108.831 C 235.025 107.118,235.176 105.708,235.382 105.502 C 235.641 105.243,235.637 104.952,235.368 104.449 C 235.068 103.889,235.094 103.717,235.501 103.561 C 236.065 103.344,236.227 101.146,235.679 101.146 C 235.499 101.146,235.352 100.630,235.352 100.000 C 235.352 99.370,235.499 98.854,235.679 98.854 C 236.190 98.854,236.064 97.018,235.522 96.569 C 235.170 96.276,235.126 96.003,235.360 95.567 C 235.571 95.171,235.569 94.897,235.353 94.763 C 235.172 94.652,235.025 93.365,235.025 91.905 C 235.025 89.957,234.888 89.099,234.513 88.685 C 234.232 88.374,233.916 87.258,233.811 86.204 C 233.702 85.123,233.426 84.174,233.176 84.026 C 232.930 83.881,232.733 83.223,232.733 82.544 C 232.733 81.729,232.516 81.138,232.079 80.763 C 231.659 80.404,231.424 79.798,231.424 79.074 C 231.424 78.285,231.137 77.632,230.471 76.902 C 229.946 76.328,229.427 75.376,229.316 74.787 C 229.206 74.198,228.898 73.535,228.633 73.315 C 228.368 73.095,228.151 72.786,228.151 72.628 C 228.151 72.470,227.856 72.046,227.496 71.686 C 227.136 71.326,226.841 70.769,226.841 70.448 C 226.841 70.101,226.444 69.715,225.859 69.495 C 225.310 69.288,224.877 68.884,224.877 68.580 C 224.877 68.280,223.846 67.006,222.586 65.749 C 221.326 64.491,220.295 63.342,220.295 63.196 C 220.295 63.049,219.890 62.845,219.394 62.741 C 218.899 62.637,217.758 61.839,216.858 60.967 C 215.957 60.096,214.521 59.045,213.666 58.631 C 212.811 58.218,212.111 57.745,212.111 57.581 C 212.111 57.417,211.521 57.283,210.799 57.283 C 209.891 57.283,209.313 57.081,208.926 56.628 C 208.447 56.070,207.956 55.973,205.574 55.969 C 204.038 55.966,202.583 55.837,202.339 55.683 C 202.084 55.522,201.422 55.547,200.787 55.742 C 199.883 56.019,199.569 55.981,199.078 55.537 C 198.339 54.869,198.222 54.864,197.709 55.483 M255.565 55.674 C 254.785 56.528,254.660 144.026,255.439 144.026 C 255.684 144.026,256.260 144.321,256.718 144.681 C 257.483 145.283,258.046 145.336,263.733 145.336 L 269.916 145.336 271.128 144.094 L 272.340 142.853 272.340 126.278 C 272.340 106.854,271.973 108.551,276.143 108.725 C 279.210 108.853,279.522 109.041,279.774 110.921 C 279.873 111.660,280.156 112.433,280.403 112.638 C 280.649 112.842,280.851 113.268,280.851 113.584 C 280.851 113.900,281.053 114.327,281.301 114.532 C 281.548 114.737,281.846 115.624,281.962 116.504 C 282.089 117.457,282.370 118.177,282.658 118.288 C 282.973 118.409,283.142 118.928,283.142 119.770 C 283.142 120.484,283.362 121.286,283.632 121.556 C 283.901 121.825,284.117 122.388,284.112 122.806 C 284.096 124.197,284.534 125.856,284.987 126.121 C 285.241 126.270,285.434 126.923,285.434 127.636 C 285.434 128.325,285.639 129.059,285.889 129.267 C 286.140 129.475,286.423 130.045,286.519 130.534 C 286.770 131.816,287.875 134.744,288.303 135.259 C 288.503 135.501,288.654 136.173,288.637 136.754 C 288.620 137.361,288.867 138.096,289.220 138.486 C 289.557 138.858,289.849 139.410,289.868 139.712 C 289.888 140.015,289.930 140.820,289.960 141.502 C 290.005 142.495,290.289 143.003,291.379 144.039 L 292.742 145.336 299.420 145.336 C 305.938 145.336,307.103 145.180,307.785 144.223 C 308.147 143.714,307.716 140.360,307.213 139.771 C 306.983 139.501,306.785 138.838,306.775 138.298 C 306.764 137.758,306.454 136.653,306.085 135.843 C 305.717 135.033,305.412 133.909,305.408 133.346 C 305.404 132.783,305.180 132.139,304.910 131.915 C 304.640 131.691,304.418 131.120,304.417 130.647 C 304.416 130.174,304.122 129.345,303.764 128.805 C 303.407 128.265,303.108 127.381,303.101 126.841 C 303.094 126.301,302.873 125.573,302.608 125.224 C 302.344 124.874,302.128 124.266,302.128 123.873 C 302.128 123.479,301.907 122.974,301.637 122.750 C 301.367 122.525,301.146 122.088,301.146 121.778 C 301.146 121.468,300.861 120.957,300.513 120.642 C 300.165 120.327,299.954 119.877,300.045 119.642 C 300.375 118.781,299.503 115.438,298.660 114.333 C 298.075 113.566,297.771 112.711,297.696 111.618 C 297.635 110.740,297.344 109.654,297.049 109.203 C 296.268 108.011,296.521 106.898,297.603 106.773 C 298.085 106.717,298.655 106.459,298.870 106.200 C 299.086 105.941,299.516 105.728,299.826 105.728 C 300.136 105.728,300.644 105.447,300.955 105.103 C 301.267 104.759,301.879 104.388,302.315 104.279 C 302.818 104.152,303.110 103.844,303.110 103.438 C 303.110 103.086,303.515 102.547,304.010 102.240 C 305.239 101.478,305.728 100.829,305.728 99.956 C 305.728 99.551,306.026 99.010,306.390 98.755 C 306.836 98.443,306.979 98.100,306.828 97.707 C 306.691 97.350,306.793 96.982,307.089 96.761 C 308.074 96.028,308.853 93.090,308.326 92.101 C 307.960 91.413,307.946 91.188,308.265 91.081 C 308.579 90.976,308.674 88.830,308.674 81.833 C 308.674 74.836,308.579 72.690,308.265 72.585 C 307.945 72.477,307.956 72.261,308.314 71.587 C 308.632 70.991,308.671 70.597,308.441 70.306 C 308.258 70.075,308.027 69.248,307.928 68.469 C 307.829 67.690,307.531 66.806,307.265 66.505 C 307.000 66.204,306.675 65.442,306.542 64.812 C 306.370 63.994,305.753 63.168,304.386 61.928 C 303.333 60.972,302.283 59.793,302.052 59.309 C 301.762 58.701,301.331 58.395,300.660 58.318 C 300.125 58.257,299.132 57.705,298.452 57.091 C 297.350 56.095,296.994 55.967,295.171 55.910 C 294.046 55.875,292.694 55.830,292.165 55.811 C 291.637 55.791,291.146 55.599,291.074 55.384 C 290.818 54.615,256.274 54.897,255.565 55.674 M204.659 72.995 C 204.944 73.452,205.422 73.650,206.243 73.650 C 207.277 73.650,209.493 75.505,209.493 76.370 C 209.493 76.447,210.524 77.549,211.784 78.819 C 213.165 80.211,214.075 81.403,214.075 81.818 C 214.075 82.198,214.296 82.593,214.566 82.697 C 214.836 82.800,215.057 83.279,215.057 83.759 C 215.057 84.240,215.315 84.871,215.630 85.160 C 216.949 86.372,217.349 87.226,217.349 88.830 C 217.349 89.919,217.538 90.665,217.921 91.089 C 218.436 91.657,218.494 92.586,218.494 100.224 C 218.494 107.944,218.442 108.766,217.921 109.146 C 217.522 109.438,217.349 110.013,217.349 111.049 C 217.349 112.005,217.189 112.594,216.899 112.705 C 216.651 112.800,216.350 113.539,216.228 114.348 C 216.106 115.164,215.796 115.899,215.533 116.000 C 215.271 116.100,215.057 116.533,215.057 116.961 C 215.057 117.400,214.582 118.229,213.965 118.864 C 213.364 119.483,212.776 120.352,212.657 120.796 C 212.534 121.258,211.864 121.954,211.090 122.422 C 210.322 122.887,209.599 123.636,209.414 124.156 C 209.191 124.787,208.797 125.131,208.146 125.261 C 207.626 125.365,207.201 125.574,207.201 125.725 C 207.201 127.373,196.690 128.702,195.452 127.211 C 195.247 126.964,194.553 126.676,193.910 126.572 C 192.648 126.367,191.817 125.839,191.817 125.242 C 191.817 125.036,190.491 123.505,188.871 121.839 C 187.250 120.174,185.925 118.610,185.925 118.365 C 185.925 118.120,185.704 117.736,185.434 117.512 C 185.164 117.288,184.943 116.755,184.943 116.327 C 184.943 115.898,184.685 115.271,184.370 114.932 C 182.871 113.321,182.651 112.790,182.651 110.775 C 182.651 109.378,182.500 108.629,182.160 108.347 C 181.513 107.809,181.428 93.682,182.066 92.532 C 182.284 92.138,182.554 90.750,182.667 89.447 C 182.797 87.935,183.069 86.859,183.416 86.475 C 183.716 86.144,183.961 85.586,183.961 85.235 C 183.961 84.884,184.255 84.345,184.615 84.037 C 184.975 83.728,185.270 83.213,185.270 82.891 C 185.270 82.570,185.693 81.843,186.210 81.277 C 186.727 80.711,187.243 79.878,187.357 79.426 C 187.470 78.973,187.838 78.516,188.174 78.410 C 189.063 78.127,191.685 75.561,191.956 74.709 C 192.090 74.286,192.557 73.891,193.066 73.770 C 193.549 73.656,194.165 73.380,194.435 73.158 C 195.276 72.465,195.790 72.393,200.079 72.366 C 203.911 72.343,204.283 72.394,204.659 72.995 M290.093 73.573 L 291.162 74.643 291.268 81.266 C 291.431 91.436,291.549 91.326,280.597 91.326 C 271.350 91.326,272.340 92.479,272.340 81.714 C 272.340 71.154,271.277 72.270,281.217 72.401 L 289.023 72.504 290.093 73.573 M81.779 182.642 C 81.718 182.816,80.012 183.059,77.986 183.182 C 75.527 183.331,74.181 183.551,73.936 183.846 C 73.735 184.089,73.313 184.288,72.999 184.288 C 72.685 184.288,72.054 184.583,71.596 184.943 C 71.139 185.303,70.344 185.597,69.832 185.597 C 69.184 185.597,68.577 185.948,67.847 186.743 C 67.269 187.373,66.504 187.889,66.148 187.889 C 65.379 187.889,63.830 189.237,63.830 189.907 C 63.830 190.499,63.182 191.162,62.603 191.162 C 61.971 191.162,60.579 192.842,60.567 193.620 C 60.561 193.982,60.262 194.462,59.902 194.687 C 59.542 194.912,59.247 195.252,59.247 195.444 C 59.247 195.635,59.026 196.012,58.756 196.282 C 58.486 196.552,58.265 197.071,58.265 197.435 C 58.265 197.799,57.971 198.471,57.610 198.929 C 57.250 199.386,56.956 199.944,56.956 200.168 C 56.956 200.391,56.735 200.758,56.465 200.982 C 56.106 201.280,55.974 202.071,55.974 203.928 C 55.974 205.785,55.842 206.576,55.483 206.874 C 55.129 207.168,54.992 207.945,54.992 209.661 C 54.992 211.475,55.109 212.086,55.483 212.230 C 55.833 212.364,55.974 212.914,55.976 214.147 C 55.977 215.321,56.187 216.191,56.628 216.858 C 56.986 217.398,57.280 218.065,57.281 218.339 C 57.282 218.614,57.725 219.323,58.265 219.915 C 58.805 220.506,59.247 221.203,59.247 221.464 C 59.247 222.256,65.392 228.151,66.218 228.151 C 66.618 228.151,67.130 228.445,67.354 228.805 C 67.588 229.179,68.118 229.460,68.589 229.460 C 69.043 229.460,69.500 229.681,69.603 229.951 C 69.707 230.221,70.126 230.442,70.535 230.442 C 70.944 230.442,71.452 230.651,71.665 230.907 C 71.877 231.163,72.623 231.469,73.322 231.588 C 74.022 231.706,74.768 232.012,74.980 232.268 C 75.193 232.524,75.615 232.733,75.919 232.733 C 76.222 232.733,76.757 232.949,77.106 233.214 C 77.455 233.478,78.050 233.699,78.427 233.705 C 78.804 233.711,79.380 234.010,79.705 234.370 C 80.031 234.730,80.661 235.025,81.104 235.025 C 81.548 235.025,82.760 235.540,83.797 236.170 C 84.834 236.800,85.812 237.316,85.971 237.316 C 86.129 237.316,86.442 237.610,86.667 237.971 C 86.892 238.331,87.267 238.625,87.500 238.625 C 88.021 238.625,90.016 240.640,90.016 241.166 C 90.016 241.376,90.311 241.706,90.671 241.899 C 91.823 242.515,91.640 248.674,90.426 250.126 C 86.357 254.992,86.450 254.969,70.589 254.982 L 57.218 254.992 56.105 256.105 L 54.992 257.218 54.992 263.922 L 54.992 270.626 56.116 271.483 L 57.239 272.340 70.008 272.340 C 78.167 272.340,82.849 272.222,82.979 272.013 C 83.090 271.833,83.532 271.686,83.961 271.686 C 84.390 271.686,84.831 271.833,84.943 272.013 C 85.239 272.493,86.063 272.412,86.626 271.849 C 86.896 271.579,87.680 271.358,88.368 271.358 C 89.178 271.358,89.685 271.185,89.807 270.867 C 89.911 270.597,90.351 270.376,90.784 270.376 C 91.218 270.376,91.741 270.174,91.946 269.926 C 92.152 269.679,92.898 269.384,93.604 269.271 C 94.367 269.149,95.327 268.663,95.971 268.072 C 96.567 267.526,97.380 266.996,97.779 266.895 C 98.177 266.794,98.599 266.394,98.716 266.007 C 99.021 264.993,100.510 263.502,101.217 263.502 C 101.549 263.502,101.914 263.245,102.029 262.930 C 102.143 262.615,102.728 261.804,103.328 261.128 C 103.928 260.453,104.419 259.701,104.419 259.459 C 104.419 259.216,104.830 258.444,105.333 257.741 C 106.335 256.341,107.190 253.866,106.857 253.328 C 106.741 253.140,106.888 252.720,107.183 252.393 C 107.479 252.067,107.808 251.229,107.915 250.532 C 108.023 249.834,108.261 249.073,108.444 248.840 C 108.674 248.549,108.659 248.299,108.399 248.039 C 107.912 247.552,107.912 246.317,108.399 245.538 C 108.695 245.064,108.659 244.566,108.235 243.271 C 107.937 242.359,107.692 240.811,107.692 239.831 C 107.692 238.691,107.525 237.912,107.227 237.664 C 106.971 237.452,106.665 236.706,106.547 236.007 C 106.428 235.307,106.122 234.561,105.866 234.349 C 105.610 234.136,105.401 233.775,105.401 233.546 C 105.401 233.318,105.180 233.046,104.910 232.942 C 104.640 232.839,104.419 232.524,104.419 232.243 C 104.419 231.537,100.397 227.496,99.695 227.496 C 99.366 227.496,98.973 227.093,98.765 226.542 C 98.468 225.756,98.161 225.551,97.022 225.381 C 96.261 225.266,95.565 224.980,95.474 224.744 C 95.384 224.509,94.892 224.229,94.382 224.124 C 93.871 224.019,92.966 223.482,92.369 222.932 C 91.540 222.166,90.980 221.931,89.986 221.931 C 89.176 221.931,88.620 221.759,88.511 221.474 C 88.415 221.223,87.674 220.918,86.866 220.797 C 86.057 220.675,85.315 220.365,85.216 220.108 C 85.103 219.815,84.568 219.640,83.781 219.640 C 83.091 219.640,82.434 219.490,82.321 219.308 C 82.208 219.125,81.647 218.753,81.074 218.481 C 79.825 217.887,78.789 217.286,78.185 216.806 C 77.941 216.611,77.217 216.358,76.576 216.242 C 75.775 216.098,74.958 215.558,73.964 214.515 L 72.517 212.997 72.393 209.644 C 72.279 206.578,72.328 206.232,72.959 205.600 C 73.339 205.221,73.650 204.670,73.650 204.376 C 73.650 203.710,76.185 201.149,77.139 200.850 C 77.528 200.729,78.025 200.414,78.243 200.151 C 78.580 199.745,80.772 199.673,92.739 199.673 L 106.838 199.673 107.756 198.793 L 108.674 197.914 108.674 191.141 C 108.674 185.520,108.591 184.299,108.183 183.961 C 107.913 183.737,107.692 183.277,107.692 182.939 C 107.692 182.241,82.017 181.947,81.779 182.642 M151.718 183.512 C 150.465 184.988,150.297 185.427,150.269 187.281 C 150.253 188.314,150.088 188.861,149.755 188.989 C 149.389 189.129,149.264 189.712,149.264 191.271 C 149.264 192.869,149.109 193.562,148.609 194.197 C 148.135 194.800,147.954 195.525,147.954 196.825 C 147.954 198.046,147.810 198.676,147.504 198.793 C 147.216 198.904,147.003 199.676,146.912 200.944 C 146.823 202.172,146.559 203.153,146.216 203.532 C 145.850 203.936,145.663 204.704,145.663 205.796 C 145.663 206.866,145.490 207.592,145.172 207.856 C 144.893 208.088,144.681 208.801,144.681 209.509 C 144.681 210.195,144.460 210.976,144.190 211.246 C 143.914 211.522,143.699 212.322,143.699 213.070 C 143.699 213.966,143.484 214.617,143.044 215.057 C 142.526 215.575,142.390 216.148,142.390 217.800 C 142.390 219.256,142.241 220.010,141.899 220.295 C 141.604 220.539,141.408 221.255,141.408 222.084 C 141.408 223.051,141.211 223.645,140.753 224.059 C 140.240 224.523,140.098 225.067,140.098 226.575 C 140.098 227.906,139.959 228.552,139.648 228.671 C 139.347 228.787,139.123 229.701,138.973 231.416 C 138.818 233.192,138.603 234.044,138.278 234.169 C 137.978 234.284,137.807 234.820,137.807 235.646 C 137.807 236.361,137.587 237.162,137.316 237.433 C 137.040 237.709,136.825 238.509,136.825 239.260 C 136.825 240.191,136.626 240.766,136.170 241.156 C 135.647 241.604,135.516 242.122,135.516 243.732 C 135.516 245.058,135.359 245.876,135.058 246.126 C 134.603 246.503,134.190 248.422,134.185 250.179 C 134.183 250.682,133.967 251.176,133.703 251.277 C 133.383 251.400,133.224 251.940,133.224 252.909 C 133.224 253.844,133.063 254.420,132.769 254.532 C 132.482 254.643,132.230 255.489,132.087 256.830 C 131.962 257.997,131.652 259.350,131.398 259.836 C 131.144 260.322,130.935 261.088,130.933 261.538 C 130.931 261.989,130.731 262.735,130.490 263.198 C 130.248 263.661,129.948 264.818,129.821 265.771 C 129.695 266.723,129.368 267.843,129.095 268.260 C 128.254 269.543,128.609 271.500,129.705 271.626 C 130.200 271.683,130.606 271.867,130.606 272.035 C 130.606 272.584,142.775 272.399,143.516 271.839 C 143.865 271.575,144.418 271.358,144.743 271.358 C 145.184 271.358,145.336 271.105,145.336 270.366 C 145.336 269.786,145.539 269.296,145.827 269.185 C 146.194 269.044,146.318 268.452,146.320 266.823 C 146.321 265.203,146.488 264.397,146.972 263.666 C 147.385 263.043,147.623 262.130,147.625 261.169 C 147.626 260.259,147.813 259.500,148.094 259.267 C 148.354 259.051,148.661 257.947,148.787 256.772 C 148.911 255.613,149.032 254.637,149.056 254.602 C 149.080 254.568,152.193 254.437,155.974 254.310 C 159.755 254.183,162.995 254.064,163.175 254.045 C 164.455 253.911,177.761 254.474,178.089 254.677 C 178.315 254.817,178.566 255.792,178.646 256.844 C 178.725 257.896,178.972 258.903,179.195 259.083 C 179.417 259.264,179.689 260.491,179.799 261.812 C 179.909 263.133,180.145 264.389,180.322 264.603 C 180.500 264.817,180.745 265.798,180.868 266.784 C 180.990 267.770,181.294 268.902,181.543 269.301 C 181.793 269.700,181.997 270.227,181.997 270.472 C 181.997 271.265,183.587 272.518,184.031 272.074 C 184.305 271.799,186.435 271.684,191.309 271.681 C 195.099 271.678,198.405 271.546,198.655 271.387 C 199.251 271.010,198.908 268.214,198.058 266.515 C 197.724 265.848,197.433 264.542,197.411 263.612 C 197.389 262.682,197.154 261.504,196.887 260.993 C 196.621 260.483,196.402 259.587,196.401 259.003 C 196.400 258.418,195.941 256.969,195.380 255.783 C 194.697 254.336,194.470 253.517,194.690 253.296 C 194.911 253.076,194.870 252.681,194.566 252.097 C 194.316 251.619,194.111 250.980,194.110 250.678 C 194.109 250.376,193.856 249.876,193.548 249.568 C 193.173 249.193,192.943 248.312,192.853 246.901 C 192.765 245.512,192.565 244.734,192.268 244.620 C 191.955 244.500,191.817 243.855,191.817 242.518 C 191.817 241.026,191.669 240.441,191.162 239.935 C 190.710 239.482,190.507 238.843,190.507 237.869 C 190.507 237.094,190.291 236.173,190.027 235.824 C 189.762 235.474,189.541 234.525,189.534 233.715 C 189.526 232.811,189.270 231.863,188.871 231.260 C 188.458 230.637,188.220 229.724,188.218 228.763 C 188.217 227.819,188.031 227.095,187.725 226.841 C 187.455 226.617,187.234 225.954,187.234 225.368 C 187.234 224.782,187.016 224.122,186.750 223.901 C 186.483 223.680,186.268 223.183,186.271 222.797 C 186.285 221.097,185.805 218.639,185.393 218.297 C 185.140 218.087,184.943 217.313,184.943 216.530 C 184.943 215.692,184.747 214.975,184.452 214.730 C 184.120 214.454,183.961 213.714,183.961 212.443 C 183.961 211.059,183.788 210.343,183.306 209.731 C 182.866 209.171,182.651 208.403,182.651 207.385 C 182.651 206.342,182.499 205.813,182.160 205.683 C 181.807 205.547,181.669 204.993,181.669 203.699 C 181.669 202.399,181.489 201.674,181.015 201.071 C 180.655 200.614,180.355 199.780,180.350 199.219 C 180.344 198.659,180.123 197.914,179.859 197.564 C 179.584 197.201,179.377 196.219,179.376 195.273 C 179.374 194.171,179.156 193.288,178.723 192.635 C 178.268 191.948,178.072 191.098,178.071 189.806 C 178.069 188.467,177.934 187.907,177.578 187.770 C 177.228 187.636,177.085 187.084,177.082 185.853 C 177.071 182.295,177.169 182.321,163.839 182.339 L 152.700 182.355 151.718 183.512 M219.704 183.403 L 218.658 184.483 218.658 227.921 C 218.658 270.196,218.674 271.358,219.273 271.358 C 219.611 271.358,220.070 271.579,220.295 271.849 C 221.028 272.733,270.797 272.574,271.686 271.686 C 272.393 270.978,272.735 256.956,272.045 256.956 C 271.883 256.956,271.596 256.514,271.407 255.974 L 271.065 254.992 253.929 254.992 C 241.037 254.992,236.695 254.895,236.399 254.599 C 236.099 254.298,236.007 246.033,236.007 219.389 L 236.007 184.572 235.149 183.448 L 234.292 182.324 227.521 182.324 L 220.750 182.324 219.704 183.403 M292.372 183.403 L 291.326 184.483 291.326 227.757 C 291.326 270.595,291.332 271.038,291.980 271.686 C 292.624 272.329,293.071 272.340,317.775 272.340 L 342.916 272.340 343.962 271.261 L 345.008 270.182 345.008 263.466 L 345.008 256.751 344.090 255.871 L 343.172 254.992 326.262 254.992 C 309.879 254.992,309.341 254.972,309.013 254.359 C 308.409 253.229,308.567 237.143,309.189 236.521 C 309.627 236.083,310.825 236.007,317.241 236.007 L 324.779 236.007 325.892 234.894 L 327.005 233.781 327.005 226.845 C 327.005 217.822,328.012 218.683,317.442 218.669 C 309.785 218.659,309.334 218.624,309.013 218.025 C 308.556 217.171,308.556 201.159,309.013 200.306 C 309.341 199.692,309.877 199.673,326.134 199.673 L 342.916 199.673 343.962 198.593 L 345.008 197.514 345.008 190.574 C 345.008 184.070,344.967 183.592,344.354 182.979 C 343.710 182.335,343.262 182.324,318.558 182.324 L 293.418 182.324 292.372 183.403 M164.977 202.667 C 165.075 203.771,165.372 204.771,165.713 205.148 C 166.125 205.603,166.285 206.335,166.285 207.765 C 166.285 209.227,166.414 209.800,166.776 209.938 C 167.128 210.074,167.267 210.625,167.267 211.893 C 167.267 213.164,167.450 213.893,167.921 214.492 C 168.395 215.094,168.576 215.820,168.576 217.120 C 168.576 218.414,168.713 218.968,169.067 219.104 C 169.398 219.231,169.558 219.750,169.558 220.698 C 169.558 221.479,169.849 222.648,170.213 223.326 C 170.636 224.115,170.867 225.173,170.867 226.314 C 170.867 227.510,171.013 228.136,171.317 228.253 C 171.605 228.363,171.818 229.130,171.908 230.375 C 171.998 231.618,172.250 232.526,172.604 232.880 C 173.224 233.500,173.343 235.480,172.840 236.804 L 172.520 237.643 163.666 237.643 L 154.812 237.643 154.493 236.804 C 153.942 235.355,154.103 233.442,154.828 232.821 C 155.343 232.380,155.483 231.855,155.483 230.359 C 155.483 228.971,155.615 228.407,155.974 228.269 C 156.328 228.133,156.465 227.579,156.465 226.285 C 156.465 224.985,156.646 224.260,157.119 223.657 C 157.590 223.058,157.774 222.329,157.774 221.059 C 157.774 219.790,157.913 219.239,158.265 219.104 C 158.621 218.967,158.757 218.407,158.758 217.068 C 158.760 215.776,158.956 214.926,159.411 214.239 C 159.846 213.581,160.062 212.703,160.063 211.579 C 160.065 210.488,160.237 209.757,160.556 209.493 C 160.859 209.242,161.047 208.523,161.047 207.622 C 161.047 206.655,161.269 205.877,161.702 205.327 C 162.169 204.733,162.357 203.999,162.357 202.765 C 162.357 200.931,162.588 200.647,163.993 200.755 C 164.740 200.813,164.826 200.979,164.977 202.667 " stroke="none" fill="#040404" fill-rule="evenodd"></path><path id="path1" d="M0.000 14.894 C 0.000 24.604,0.114 29.787,0.327 29.787 C 0.507 29.787,0.655 29.500,0.655 29.149 C 0.655 28.797,0.888 27.656,1.174 26.612 C 1.460 25.568,1.815 24.224,1.963 23.626 C 2.112 23.028,2.467 22.279,2.753 21.963 C 3.039 21.647,3.273 21.053,3.273 20.643 C 3.273 20.233,3.715 19.340,4.255 18.658 C 4.795 17.976,5.237 17.254,5.237 17.054 C 5.237 16.854,5.606 16.369,6.056 15.978 C 6.506 15.587,6.874 15.008,6.874 14.693 C 6.874 13.939,13.947 6.874,14.702 6.874 C 15.022 6.874,15.638 6.565,16.071 6.187 C 16.504 5.810,17.392 5.227,18.045 4.892 C 18.698 4.557,19.319 4.056,19.426 3.778 C 19.532 3.501,20.006 3.273,20.478 3.273 C 20.951 3.273,21.712 2.979,22.169 2.619 C 22.627 2.259,23.286 1.964,23.634 1.964 C 23.981 1.964,24.571 1.801,24.943 1.601 C 25.316 1.402,26.952 1.144,28.578 1.028 C 30.493 0.892,31.583 0.674,31.670 0.409 C 31.777 0.086,28.479 0.000,15.903 0.000 L 0.000 0.000 0.000 14.894 M371.195 0.285 C 371.195 0.441,371.894 0.742,372.750 0.953 C 373.605 1.164,374.746 1.495,375.286 1.688 C 375.827 1.881,376.669 2.112,377.158 2.201 C 377.647 2.290,378.218 2.567,378.426 2.818 C 378.633 3.068,379.136 3.273,379.542 3.273 C 379.948 3.273,380.463 3.494,380.687 3.764 C 380.912 4.034,381.246 4.255,381.430 4.255 C 381.615 4.255,382.370 4.745,383.109 5.343 C 383.847 5.942,384.709 6.526,385.025 6.642 C 385.340 6.758,385.597 7.005,385.597 7.191 C 385.597 7.377,385.841 7.529,386.139 7.529 C 386.797 7.529,393.453 14.267,393.453 14.932 C 393.453 15.192,393.644 15.478,393.876 15.568 C 394.252 15.712,396.062 19.065,397.224 21.768 C 397.456 22.308,397.953 23.420,398.329 24.238 C 398.705 25.057,399.107 26.420,399.223 27.266 C 399.777 31.304,400.000 27.608,400.000 14.403 L 400.000 0.000 385.597 0.000 C 377.648 0.000,371.195 0.128,371.195 0.285 M35.679 16.780 C 35.229 16.982,32.651 17.245,29.951 17.364 C 22.428 17.697,19.125 19.234,17.342 23.234 C 17.143 23.680,16.871 24.122,16.738 24.216 C 15.577 25.032,14.971 28.059,15.181 31.992 C 15.380 35.726,15.350 36.041,14.735 36.656 C 13.839 37.552,13.671 292.220,14.566 292.962 C 14.938 293.271,15.057 294.106,15.057 296.398 C 15.057 300.652,16.366 303.826,19.536 307.258 C 20.230 308.009,21.194 308.723,21.678 308.845 C 22.163 308.966,22.730 309.272,22.940 309.525 C 23.149 309.777,23.638 309.984,24.026 309.984 C 24.414 309.984,25.096 310.241,25.541 310.556 C 26.693 311.372,367.090 311.651,370.376 310.839 C 371.457 310.572,373.263 310.273,374.391 310.173 C 375.519 310.074,376.771 309.787,377.173 309.536 C 377.576 309.285,378.280 308.993,378.738 308.888 C 379.898 308.620,383.589 305.201,383.853 304.148 C 383.973 303.671,384.267 303.084,384.507 302.844 C 384.747 302.604,384.947 302.161,384.953 301.859 C 384.959 301.557,385.180 301.023,385.444 300.674 C 386.173 299.710,386.152 27.661,385.423 26.697 C 385.159 26.347,384.943 25.803,384.943 25.488 C 384.943 24.034,381.771 20.106,379.173 18.342 C 377.534 17.230,376.025 16.946,371.470 16.896 C 369.552 16.875,367.869 16.746,367.731 16.610 C 367.302 16.185,36.628 16.356,35.679 16.780 M145.024 55.008 C 145.984 55.968,145.887 71.276,144.915 72.248 C 144.373 72.789,143.063 72.843,126.912 72.995 L 109.493 73.159 109.493 81.833 L 109.493 90.507 117.834 90.595 L 126.176 90.683 126.918 91.546 C 127.641 92.388,127.660 92.595,127.660 99.712 L 127.660 107.015 126.649 108.166 L 125.638 109.318 117.565 109.405 L 109.493 109.493 109.329 126.699 L 109.165 143.906 108.209 144.792 C 106.887 146.017,106.687 146.042,99.301 145.928 L 92.748 145.827 91.710 144.846 L 90.671 143.865 90.671 100.389 C 90.671 54.915,90.634 56.106,92.101 54.917 C 93.289 53.954,144.058 54.041,145.024 55.008 M203.192 54.912 C 203.286 55.194,204.176 55.319,206.080 55.319 C 208.478 55.319,208.885 55.403,209.241 55.974 C 209.547 56.463,210.005 56.628,211.055 56.628 C 211.951 56.628,212.522 56.793,212.633 57.083 C 212.729 57.333,213.205 57.616,213.690 57.714 C 214.176 57.811,215.013 58.339,215.552 58.887 C 216.090 59.435,216.701 59.888,216.909 59.893 C 217.600 59.909,226.187 68.077,226.187 68.718 C 226.187 68.868,226.481 69.068,226.841 69.162 C 227.239 69.266,227.496 69.608,227.496 70.035 C 227.496 70.421,228.011 71.267,228.642 71.916 C 229.272 72.565,229.787 73.431,229.787 73.840 C 229.787 74.250,229.989 74.787,230.235 75.033 C 230.481 75.279,230.782 75.792,230.902 76.172 C 231.023 76.552,231.337 76.945,231.600 77.046 C 231.922 77.170,232.079 77.712,232.079 78.702 C 232.079 79.838,232.228 80.253,232.733 80.524 C 233.167 80.756,233.388 81.209,233.388 81.868 C 233.388 82.415,233.609 83.083,233.879 83.353 C 234.168 83.642,234.370 84.441,234.370 85.295 C 234.370 86.120,234.652 87.272,235.025 87.967 C 235.516 88.884,235.679 89.814,235.679 91.695 C 235.679 93.530,235.801 94.248,236.133 94.376 C 236.802 94.633,236.804 105.603,236.135 105.860 C 235.792 105.992,235.679 106.766,235.679 108.991 C 235.679 111.511,235.583 112.044,235.025 112.602 C 234.528 113.099,234.370 113.693,234.370 115.068 C 234.370 116.375,234.233 116.931,233.879 117.067 C 233.599 117.174,233.388 117.662,233.388 118.199 C 233.388 118.789,233.142 119.297,232.733 119.552 C 232.301 119.822,232.079 120.316,232.079 121.005 C 232.079 121.579,231.858 122.269,231.588 122.539 C 231.318 122.809,231.097 123.410,231.097 123.875 C 231.097 124.340,230.802 124.972,230.442 125.281 C 230.082 125.589,229.787 126.151,229.787 126.530 C 229.787 126.917,229.285 127.637,228.642 128.174 C 228.011 128.699,227.496 129.336,227.496 129.588 C 227.496 130.395,222.950 135.516,222.233 135.516 C 222.067 135.516,221.931 135.683,221.931 135.887 C 221.931 136.317,220.405 137.807,219.964 137.807 C 219.801 137.807,219.256 138.322,218.754 138.953 C 218.251 139.583,217.544 140.098,217.183 140.098 C 216.822 140.098,216.097 140.614,215.571 141.244 C 214.765 142.210,214.407 142.390,213.279 142.390 C 212.296 142.390,211.833 142.563,211.533 143.044 C 211.277 143.453,210.769 143.699,210.180 143.699 C 209.642 143.699,209.154 143.910,209.047 144.190 C 208.904 144.563,208.295 144.681,206.501 144.681 C 204.716 144.681,203.989 144.820,203.507 145.254 C 202.623 146.049,197.138 146.013,196.549 145.208 C 196.253 144.803,195.582 144.681,193.652 144.681 C 191.820 144.681,191.095 144.559,190.968 144.229 C 190.871 143.977,190.083 143.683,189.178 143.563 C 188.289 143.445,187.561 143.203,187.561 143.025 C 187.561 142.847,187.193 142.561,186.743 142.390 C 186.293 142.218,185.925 141.927,185.925 141.743 C 185.925 141.558,185.636 141.408,185.283 141.408 C 184.930 141.408,184.377 141.131,184.055 140.793 C 183.733 140.456,183.121 140.072,182.695 139.941 C 181.417 139.548,172.504 130.361,172.504 129.438 C 172.504 129.306,171.989 128.698,171.358 128.086 C 170.728 127.474,170.213 126.648,170.213 126.250 C 170.213 125.851,169.918 125.342,169.558 125.117 C 169.151 124.862,168.903 124.354,168.903 123.769 C 168.903 123.252,168.682 122.646,168.412 122.422 C 168.142 122.198,167.921 121.787,167.921 121.508 C 167.921 121.229,167.683 120.737,167.392 120.415 C 167.100 120.094,166.787 119.164,166.695 118.349 C 166.603 117.535,166.326 116.700,166.079 116.495 C 165.813 116.275,165.630 115.485,165.630 114.561 C 165.630 113.475,165.481 112.942,165.139 112.811 C 164.751 112.662,164.648 111.980,164.648 109.554 C 164.648 106.960,164.552 106.398,164.030 105.925 C 163.281 105.247,163.169 94.965,163.903 94.231 C 164.180 93.954,164.193 93.663,163.950 93.209 C 163.705 92.751,163.748 92.011,164.105 90.558 C 164.377 89.450,164.767 87.807,164.971 86.907 C 165.677 83.789,166.123 82.213,166.367 81.969 C 166.502 81.834,166.612 81.448,166.612 81.110 C 166.612 80.585,167.959 77.503,168.872 75.941 C 169.030 75.671,169.433 74.863,169.768 74.146 C 170.102 73.428,170.855 72.141,171.440 71.285 C 172.025 70.429,172.504 69.672,172.504 69.603 C 172.504 69.533,173.020 68.914,173.650 68.226 C 174.280 67.538,174.795 66.844,174.795 66.684 C 174.795 66.371,180.067 61.218,180.392 61.214 C 180.499 61.212,180.927 60.917,181.342 60.556 C 181.757 60.196,182.295 59.902,182.538 59.902 C 182.780 59.902,182.979 59.772,182.979 59.613 C 182.979 59.455,183.826 58.903,184.861 58.387 C 185.896 57.871,186.938 57.264,187.176 57.039 C 187.413 56.813,187.929 56.628,188.321 56.626 C 188.713 56.625,189.476 56.332,190.016 55.974 C 190.798 55.456,191.555 55.323,193.722 55.321 C 195.641 55.320,196.584 55.181,196.913 54.853 C 197.525 54.241,202.986 54.292,203.192 54.912 M293.358 54.756 C 293.591 54.976,294.558 55.176,295.508 55.201 C 297.251 55.247,299.182 55.832,299.182 56.315 C 299.182 56.459,299.624 56.674,300.164 56.792 C 300.704 56.911,301.146 57.143,301.146 57.309 C 301.146 57.475,301.361 57.610,301.625 57.610 C 301.889 57.610,302.263 57.907,302.457 58.269 C 302.651 58.632,303.741 59.873,304.878 61.027 C 306.142 62.310,307.022 63.507,307.142 64.106 C 307.250 64.644,307.781 65.805,308.322 66.684 L 309.306 68.283 309.318 81.687 C 309.331 94.535,309.304 95.134,308.675 96.162 C 308.315 96.751,308.020 97.603,308.020 98.054 C 308.020 98.506,307.799 98.960,307.529 99.063 C 307.259 99.167,307.038 99.571,307.038 99.962 C 307.038 100.680,305.781 102.229,304.505 103.083 C 304.124 103.338,303.742 103.815,303.656 104.143 C 303.570 104.470,303.155 104.871,302.732 105.032 C 302.310 105.194,301.683 105.637,301.340 106.018 C 300.997 106.399,300.530 106.710,300.302 106.710 C 298.386 106.710,297.503 109.270,298.758 111.186 C 299.017 111.582,299.185 112.174,299.129 112.501 C 299.074 112.828,299.357 113.628,299.760 114.279 C 300.162 114.929,300.491 115.923,300.491 116.487 C 300.491 117.051,300.622 117.512,300.782 117.512 C 300.942 117.512,301.175 118.057,301.300 118.723 C 301.425 119.389,301.736 120.232,301.991 120.596 C 302.246 120.961,302.455 121.559,302.455 121.927 C 302.455 122.295,302.750 123.145,303.110 123.817 C 303.470 124.489,303.764 125.395,303.764 125.832 C 303.764 126.268,303.971 127.042,304.224 127.551 C 305.126 129.368,306.056 132.105,306.056 132.945 C 306.056 133.415,306.277 133.982,306.547 134.206 C 306.817 134.430,307.038 135.009,307.038 135.493 C 307.038 135.977,307.254 136.658,307.518 137.008 C 307.783 137.357,308.004 137.984,308.009 138.401 C 308.015 138.818,308.172 139.444,308.358 139.791 C 308.544 140.139,308.845 141.231,309.028 142.218 C 309.671 145.695,308.927 145.986,299.374 145.988 C 291.247 145.991,289.958 145.606,289.526 143.049 C 289.404 142.328,289.170 141.655,289.006 141.554 C 288.842 141.452,288.704 140.899,288.700 140.324 C 288.696 139.750,288.404 138.912,288.052 138.462 C 287.700 138.011,287.409 137.194,287.405 136.645 C 287.401 136.096,287.215 135.464,286.992 135.241 C 286.769 135.018,286.412 134.141,286.199 133.293 C 285.465 130.375,284.501 127.075,284.205 126.468 C 284.041 126.133,283.662 125.369,283.361 124.769 C 283.061 124.169,282.815 123.341,282.815 122.929 C 282.815 121.912,281.669 118.393,281.010 117.387 C 280.716 116.939,280.514 116.305,280.562 115.978 C 280.609 115.652,280.350 114.722,279.987 113.912 C 279.623 113.101,279.128 111.809,278.888 111.040 C 278.382 109.425,277.970 109.245,275.109 109.392 L 273.159 109.493 273.074 126.560 L 272.989 143.628 271.682 144.809 L 270.375 145.990 263.709 145.990 C 257.753 145.990,256.961 145.926,256.263 145.391 C 255.834 145.062,255.225 144.698,254.910 144.583 C 254.368 144.385,254.337 141.972,254.337 100.185 L 254.337 55.997 255.074 55.199 L 255.810 54.400 274.373 54.379 C 288.552 54.362,293.035 54.451,293.358 54.756 M195.254 73.650 C 194.714 74.007,194.039 74.301,193.754 74.302 C 193.470 74.303,193.028 74.709,192.772 75.205 C 192.517 75.700,191.968 76.380,191.553 76.716 C 189.500 78.377,186.579 81.939,186.579 82.780 C 186.579 83.163,186.285 83.728,185.925 84.037 C 185.565 84.345,185.270 84.915,185.270 85.303 C 185.270 85.691,185.059 86.183,184.801 86.398 C 184.297 86.816,183.747 88.763,183.316 91.653 C 183.169 92.643,182.885 93.868,182.686 94.375 C 182.092 95.888,182.201 107.510,182.815 108.020 C 183.147 108.295,183.306 109.036,183.306 110.311 C 183.306 111.586,183.465 112.326,183.797 112.602 C 184.067 112.826,184.288 113.281,184.288 113.613 C 184.288 113.945,184.583 114.374,184.943 114.566 C 185.363 114.791,185.597 115.252,185.597 115.852 C 185.597 116.382,185.810 116.869,186.088 116.976 C 186.358 117.080,186.579 117.471,186.579 117.847 C 186.579 118.270,187.695 119.638,189.525 121.458 C 191.146 123.069,192.471 124.480,192.471 124.594 C 192.471 125.108,193.970 126.023,194.813 126.023 C 195.423 126.023,195.745 126.192,195.745 126.514 C 195.745 126.925,196.431 127.005,199.960 127.005 C 203.307 127.005,204.259 126.904,204.583 126.514 C 204.807 126.244,205.262 126.023,205.593 126.023 C 205.925 126.023,206.354 125.728,206.547 125.368 C 206.739 125.008,207.053 124.714,207.244 124.714 C 207.435 124.714,208.689 123.572,210.030 122.177 C 213.390 118.682,213.421 118.646,213.421 118.261 C 213.421 118.073,213.642 117.736,213.912 117.512 C 214.182 117.288,214.403 116.848,214.403 116.534 C 214.403 116.221,214.697 115.589,215.057 115.132 C 215.417 114.674,215.712 113.913,215.712 113.441 C 215.712 112.968,215.933 112.497,216.203 112.393 C 216.540 112.264,216.696 111.729,216.701 110.685 C 216.706 109.683,216.926 108.887,217.349 108.347 C 218.336 107.085,218.336 93.308,217.349 91.817 C 216.971 91.246,216.697 90.281,216.696 89.513 C 216.694 88.097,215.700 85.800,214.894 85.349 C 214.624 85.198,214.403 84.731,214.403 84.312 C 214.403 83.893,214.182 83.367,213.912 83.142 C 213.642 82.918,213.421 82.461,213.421 82.126 C 213.421 81.792,212.279 80.362,210.884 78.950 C 209.489 77.537,207.979 75.916,207.529 75.346 C 206.988 74.662,206.422 74.309,205.861 74.307 C 205.394 74.306,204.745 74.010,204.419 73.650 C 203.537 72.675,196.725 72.675,195.254 73.650 M273.143 73.410 C 273.055 73.638,273.023 77.578,273.071 82.166 L 273.159 90.507 280.196 90.606 C 290.580 90.752,290.671 90.676,290.671 81.789 C 290.671 75.530,290.248 74.095,288.171 73.305 C 286.866 72.809,273.337 72.903,273.143 73.410 M108.592 182.852 C 109.299 183.960,109.329 184.297,109.329 191.268 L 109.329 198.529 108.376 199.428 L 107.424 200.327 93.228 200.327 C 79.438 200.327,79.017 200.346,78.472 200.982 C 78.164 201.342,77.672 201.637,77.379 201.637 C 76.611 201.637,74.304 204.055,74.304 204.860 C 74.304 205.235,74.010 205.699,73.650 205.892 C 73.069 206.203,72.995 206.577,72.995 209.198 L 72.995 212.154 74.832 213.933 C 75.842 214.911,76.960 215.712,77.317 215.712 C 77.674 215.712,78.340 216.007,78.798 216.367 C 79.256 216.727,79.813 217.021,80.037 217.021 C 80.261 217.021,80.627 217.242,80.851 217.512 C 81.075 217.782,81.517 218.003,81.833 218.003 C 82.149 218.003,82.591 218.224,82.815 218.494 C 83.039 218.764,83.700 218.985,84.284 218.985 C 84.868 218.985,85.720 219.280,86.178 219.640 C 86.635 220.000,87.396 220.295,87.869 220.295 C 88.341 220.295,88.812 220.516,88.916 220.786 C 89.044 221.118,89.565 221.277,90.531 221.277 C 91.593 221.277,92.042 221.434,92.288 221.894 C 92.469 222.233,92.990 222.604,93.445 222.718 C 93.900 222.832,94.272 223.070,94.272 223.247 C 94.272 223.423,94.529 223.569,94.845 223.570 C 95.160 223.571,95.859 223.865,96.399 224.223 C 96.939 224.580,97.634 224.874,97.943 224.875 C 98.845 224.879,105.475 231.697,106.052 233.216 C 106.225 233.670,106.518 234.043,106.702 234.043 C 106.887 234.043,107.038 234.407,107.038 234.853 C 107.038 235.299,107.332 236.146,107.691 236.735 C 108.156 237.498,108.345 238.386,108.346 239.818 C 108.347 241.266,108.479 241.879,108.819 242.009 C 109.598 242.308,109.451 250.185,108.637 251.787 C 108.297 252.455,108.020 253.297,108.020 253.658 C 108.020 254.019,107.809 254.799,107.553 255.390 C 107.296 255.981,106.999 256.686,106.894 256.956 C 106.789 257.226,106.410 257.889,106.051 258.429 C 105.693 258.969,105.177 259.890,104.905 260.475 C 104.633 261.060,104.275 261.538,104.109 261.538 C 103.944 261.538,103.713 261.838,103.597 262.205 C 103.380 262.888,99.126 267.161,98.426 267.399 C 98.211 267.472,97.447 267.994,96.727 268.559 C 96.007 269.124,95.049 269.754,94.599 269.959 C 92.331 270.993,91.287 271.407,89.034 272.165 L 86.579 272.991 71.522 272.992 C 57.087 272.993,56.421 272.966,55.401 272.344 L 54.337 271.695 54.337 264.032 L 54.337 256.369 55.494 255.353 L 56.651 254.337 69.704 254.337 C 85.178 254.337,84.891 254.391,88.503 250.832 L 90.671 248.695 90.671 245.706 L 90.670 242.717 88.235 240.344 C 86.895 239.038,85.590 237.971,85.333 237.971 C 85.077 237.971,84.516 237.696,84.087 237.361 C 83.657 237.026,82.975 236.647,82.570 236.521 C 82.164 236.394,81.833 236.152,81.833 235.984 C 81.833 235.817,81.414 235.679,80.902 235.679 C 80.386 235.679,79.706 235.387,79.378 235.025 C 79.052 234.664,78.434 234.370,78.004 234.370 C 77.574 234.370,76.268 233.854,75.101 233.224 C 73.934 232.594,72.614 232.079,72.169 232.079 C 71.667 232.079,71.358 231.892,71.358 231.588 C 71.358 231.262,71.032 231.097,70.388 231.097 C 69.752 231.097,69.297 230.871,69.067 230.442 C 68.860 230.056,68.382 229.787,67.900 229.787 C 67.450 229.787,66.998 229.566,66.894 229.296 C 66.791 229.026,66.349 228.805,65.913 228.805 C 64.936 228.805,59.092 223.032,58.101 221.088 C 57.741 220.382,57.263 219.686,57.038 219.542 C 56.813 219.398,56.628 218.942,56.628 218.529 C 56.628 218.116,56.334 217.511,55.974 217.185 C 55.464 216.724,55.319 216.177,55.319 214.714 C 55.319 213.347,55.186 212.785,54.828 212.648 C 54.443 212.500,54.337 211.833,54.337 209.543 C 54.337 207.350,54.459 206.526,54.828 206.219 C 55.182 205.926,55.319 205.149,55.319 203.441 C 55.319 201.566,55.456 200.896,55.974 200.238 C 56.334 199.780,56.628 199.189,56.628 198.925 C 56.628 198.660,56.849 198.260,57.119 198.036 C 57.390 197.812,57.610 197.291,57.610 196.878 C 57.610 196.464,58.123 195.600,58.756 194.948 C 59.386 194.300,59.902 193.498,59.902 193.168 C 59.902 192.482,60.948 191.274,62.293 190.406 C 62.797 190.081,63.298 189.586,63.405 189.307 C 63.772 188.351,65.050 187.234,65.777 187.234 C 66.197 187.234,66.933 186.749,67.519 186.088 C 68.204 185.314,68.818 184.943,69.415 184.943 C 69.900 184.943,70.480 184.722,70.704 184.452 C 70.928 184.182,71.351 183.960,71.644 183.959 C 71.937 183.957,72.619 183.664,73.159 183.306 C 73.894 182.819,74.696 182.655,76.350 182.654 C 77.565 182.652,78.560 182.513,78.560 182.343 C 78.560 181.858,80.460 181.787,94.599 181.740 L 107.856 181.697 108.592 182.852 M176.748 182.640 C 177.613 183.486,177.741 183.841,177.741 185.388 C 177.741 186.665,177.879 187.217,178.232 187.352 C 178.595 187.492,178.723 188.067,178.723 189.561 C 178.723 191.051,178.864 191.683,179.257 191.971 C 179.583 192.210,179.854 193.019,179.953 194.053 C 180.043 194.983,180.234 195.745,180.378 195.745 C 180.522 195.745,180.742 196.592,180.865 197.627 C 180.989 198.662,181.368 199.968,181.707 200.530 C 182.055 201.105,182.329 202.176,182.334 202.985 C 182.340 203.774,182.561 204.705,182.825 205.054 C 183.094 205.410,183.306 206.388,183.306 207.274 C 183.306 208.381,183.454 208.915,183.797 209.047 C 184.155 209.184,184.288 209.747,184.288 211.120 C 184.288 212.509,184.460 213.224,184.943 213.837 C 185.403 214.422,185.597 215.165,185.597 216.336 C 185.597 217.600,185.716 218.003,186.088 218.003 C 186.458 218.003,186.579 218.399,186.579 219.600 C 186.579 220.573,186.759 221.346,187.040 221.579 C 187.293 221.789,187.602 222.831,187.725 223.895 C 187.849 224.959,188.157 226.002,188.410 226.212 C 188.698 226.451,188.871 227.234,188.871 228.304 C 188.871 229.545,189.051 230.222,189.525 230.769 C 190.000 231.317,190.180 231.994,190.180 233.234 C 190.180 234.355,190.349 235.085,190.671 235.352 C 190.991 235.618,191.162 236.346,191.162 237.447 C 191.162 238.729,191.319 239.269,191.817 239.695 C 192.334 240.138,192.471 240.661,192.471 242.188 C 192.471 243.603,192.603 244.170,192.962 244.308 C 193.322 244.446,193.453 245.014,193.453 246.431 C 193.453 247.712,193.612 248.497,193.923 248.755 C 194.819 249.499,195.745 251.737,195.745 253.161 C 195.745 253.976,195.939 254.746,196.199 254.962 C 196.449 255.169,196.758 256.181,196.885 257.211 C 197.013 258.241,197.255 259.252,197.424 259.458 C 197.815 259.935,198.466 263.332,198.434 264.730 C 198.421 265.315,198.547 265.794,198.714 265.794 C 198.881 265.794,199.019 265.978,199.020 266.203 C 199.021 266.428,199.243 267.037,199.514 267.556 C 200.521 269.487,200.514 270.964,199.492 272.030 L 198.568 272.995 190.667 272.995 C 182.886 272.995,182.755 272.984,182.108 272.259 C 181.262 271.312,180.360 269.332,180.360 268.423 C 180.360 268.034,180.220 267.452,180.048 267.131 C 179.740 266.556,179.088 263.288,178.900 261.375 C 178.797 260.325,178.050 258.211,177.684 257.934 C 177.562 257.841,177.415 257.178,177.357 256.461 L 177.250 255.155 163.666 255.155 C 150.865 255.155,150.087 255.189,150.179 255.733 C 150.233 256.051,150.059 256.714,149.793 257.206 C 149.216 258.276,148.524 261.137,148.753 261.507 C 148.842 261.651,148.625 262.337,148.271 263.032 C 147.917 263.727,147.627 264.903,147.627 265.645 C 147.627 266.387,147.522 267.099,147.393 267.228 C 147.264 267.356,146.930 268.363,146.651 269.466 C 145.817 272.755,145.221 272.963,136.606 272.981 C 128.699 272.997,128.828 273.022,128.000 271.309 C 127.450 270.169,127.433 269.931,127.846 269.139 C 128.101 268.649,128.316 267.881,128.323 267.430 C 128.329 266.980,128.551 266.326,128.816 265.977 C 129.080 265.627,129.296 264.850,129.296 264.250 C 129.296 263.650,129.567 262.389,129.897 261.448 C 130.227 260.508,130.834 258.191,131.245 256.301 C 131.656 254.411,132.196 252.400,132.444 251.833 C 132.693 251.265,132.897 250.436,132.897 249.991 C 132.897 249.545,133.118 248.997,133.388 248.773 C 133.671 248.537,133.879 247.824,133.879 247.085 C 133.879 246.250,134.049 245.741,134.370 245.618 C 134.735 245.477,134.861 244.895,134.861 243.339 C 134.861 241.604,134.972 241.180,135.516 240.841 C 136.014 240.529,136.170 240.077,136.170 238.947 C 136.170 238.130,136.370 237.171,136.614 236.816 C 136.858 236.461,137.161 235.373,137.287 234.399 C 137.413 233.425,137.729 232.324,137.989 231.953 C 138.249 231.582,138.462 230.644,138.462 229.868 C 138.462 228.916,138.621 228.396,138.953 228.269 C 139.312 228.131,139.444 227.565,139.444 226.154 C 139.444 224.583,139.564 224.153,140.098 223.819 C 140.615 223.497,140.753 223.056,140.753 221.729 C 140.753 220.634,140.924 219.905,141.244 219.640 C 141.586 219.356,141.735 218.602,141.735 217.156 C 141.735 215.415,141.841 215.024,142.390 214.730 C 142.919 214.447,143.044 214.045,143.044 212.631 C 143.044 211.548,143.215 210.740,143.494 210.509 C 143.741 210.304,144.042 209.259,144.163 208.188 C 144.285 207.116,144.524 206.152,144.696 206.046 C 144.868 205.940,145.008 205.427,145.008 204.906 C 145.008 203.844,145.623 202.291,146.043 202.291 C 146.194 202.291,146.318 201.509,146.318 200.554 C 146.318 199.532,146.516 198.554,146.798 198.180 C 147.062 197.831,147.283 196.954,147.289 196.231 C 147.295 195.508,147.594 194.367,147.954 193.695 C 148.383 192.895,148.609 191.848,148.609 190.662 C 148.609 189.353,148.745 188.798,149.100 188.662 C 149.458 188.524,149.591 187.961,149.591 186.576 C 149.591 184.794,149.676 184.588,150.982 183.196 L 152.373 181.714 164.064 181.692 L 175.755 181.669 176.748 182.640 M235.699 182.733 L 236.498 183.797 236.661 218.985 L 236.825 254.173 254.261 254.337 L 271.696 254.501 272.344 255.483 C 273.348 257.007,273.342 271.570,272.337 272.431 C 271.238 273.372,220.617 273.289,219.067 272.344 L 218.003 271.695 218.003 227.762 L 218.003 183.828 219.049 182.749 L 220.096 181.669 227.499 181.669 L 234.901 181.669 235.699 182.733 M344.926 182.458 C 345.725 183.300,346.086 196.881,345.361 198.788 C 344.854 200.122,344.409 200.158,326.678 200.327 L 309.493 200.491 309.493 209.165 L 309.493 217.840 317.779 217.927 L 326.065 218.015 326.862 218.875 C 327.754 219.838,328.111 232.651,327.309 234.949 C 326.792 236.433,326.566 236.473,317.676 236.656 L 309.493 236.825 309.493 245.499 L 309.493 254.173 326.663 254.258 L 343.833 254.343 344.764 255.235 L 345.695 256.127 345.597 263.895 C 345.510 270.837,345.437 271.726,344.915 272.248 C 344.365 272.797,342.774 272.837,318.280 272.919 L 292.230 273.007 291.447 272.224 L 290.664 271.441 290.749 227.345 L 290.835 183.249 291.753 182.459 L 292.672 181.669 318.431 181.675 L 344.190 181.681 344.926 182.458 M163.011 203.440 C 163.011 204.839,162.864 205.370,162.357 205.804 C 161.858 206.232,161.702 206.770,161.702 208.069 C 161.702 209.069,161.518 209.957,161.257 210.218 C 161.013 210.462,160.743 211.502,160.658 212.528 C 160.567 213.620,160.277 214.642,159.957 214.996 C 159.581 215.411,159.411 216.183,159.411 217.466 C 159.411 218.824,159.277 219.385,158.920 219.522 C 158.562 219.659,158.429 220.221,158.429 221.588 C 158.429 223.051,158.284 223.598,157.774 224.059 C 157.261 224.523,157.119 225.067,157.119 226.575 C 157.119 227.983,156.988 228.549,156.628 228.687 C 156.276 228.822,156.137 229.373,156.137 230.641 C 156.137 231.986,155.977 232.566,155.464 233.079 C 154.976 233.568,154.818 234.084,154.891 234.961 L 154.992 236.170 163.666 236.170 L 172.340 236.170 172.441 234.961 C 172.514 234.084,172.357 233.568,171.868 233.079 C 171.366 232.577,171.195 231.985,171.195 230.746 C 171.195 229.707,171.011 228.902,170.704 228.595 C 170.379 228.270,170.213 227.454,170.213 226.179 C 170.213 224.728,170.079 224.181,169.670 223.951 C 169.294 223.741,169.080 223.057,168.973 221.726 C 168.881 220.586,168.636 219.697,168.370 219.542 C 168.072 219.368,167.921 218.643,167.921 217.383 C 167.921 215.902,167.778 215.356,167.267 214.894 C 166.757 214.432,166.612 213.885,166.612 212.423 C 166.612 211.055,166.479 210.493,166.121 210.356 C 165.761 210.218,165.630 209.651,165.630 208.234 C 165.630 206.914,165.474 206.170,165.139 205.892 C 164.805 205.614,164.648 204.871,164.648 203.561 C 164.648 201.727,164.610 201.637,163.830 201.637 C 163.056 201.637,163.011 201.735,163.011 203.440 M0.000 312.930 L 0.000 327.332 14.403 327.332 C 27.963 327.332,31.406 327.105,27.250 326.486 C 26.395 326.358,25.401 326.071,25.041 325.848 C 24.681 325.625,23.849 325.348,23.192 325.233 C 22.535 325.118,21.817 324.807,21.597 324.541 C 21.377 324.276,20.847 324.059,20.421 324.059 C 19.994 324.059,19.462 323.764,19.237 323.404 C 19.012 323.044,18.563 322.750,18.240 322.750 C 17.572 322.750,16.006 321.827,15.614 321.203 C 15.470 320.973,15.175 320.784,14.959 320.782 C 14.362 320.777,7.529 314.086,7.529 313.506 C 7.529 313.228,7.308 312.915,7.038 312.811 C 6.768 312.708,6.547 312.397,6.547 312.122 C 6.547 311.846,6.426 311.620,6.277 311.620 C 5.986 311.620,4.255 309.108,4.255 308.685 C 4.255 308.543,4.034 308.244,3.764 308.020 C 3.494 307.796,3.273 307.310,3.273 306.942 C 3.273 306.573,3.079 306.038,2.841 305.754 C 2.602 305.470,1.995 303.727,1.491 301.882 C 0.987 300.037,0.446 298.527,0.287 298.527 C 0.127 298.527,0.000 304.878,0.000 312.930 M399.223 299.550 C 399.110 300.113,399.018 300.996,399.018 301.514 C 399.018 302.032,398.885 302.455,398.723 302.455 C 398.561 302.455,398.252 303.191,398.036 304.092 C 397.820 304.992,397.533 305.728,397.398 305.728 C 397.190 305.728,396.586 306.937,395.760 309.002 C 395.281 310.198,394.224 311.637,393.699 311.807 C 393.384 311.909,393.126 312.257,393.126 312.582 C 393.126 313.771,386.439 320.458,385.250 320.458 C 384.925 320.458,384.573 320.731,384.467 321.063 C 384.362 321.396,383.947 321.837,383.545 322.043 C 383.144 322.249,382.594 322.552,382.324 322.716 C 382.054 322.880,381.060 323.358,380.115 323.777 C 379.169 324.197,378.396 324.639,378.396 324.758 C 378.396 324.878,377.660 325.152,376.759 325.368 C 375.859 325.584,375.123 325.893,375.123 326.056 C 375.123 326.218,374.699 326.350,374.182 326.350 C 372.782 326.350,371.195 326.720,371.195 327.046 C 371.195 327.205,377.586 327.332,385.597 327.332 L 400.000 327.332 400.000 312.930 C 400.000 299.831,399.812 296.601,399.223 299.550 " stroke="none" fill="#fbfbfb" fill-rule="evenodd">
</path>
</g>
</svg>